<?xml version="1.0" encoding="utf-8"?>
<!-- Generator: Adobe Illustrator 19.2.1, SVG Export Plug-In . SVG Version: 6.00 Build 0)  -->
<svg version="1.1" id="Layer_1" xmlns="http://www.w3.org/2000/svg" xmlns:xlink="http://www.w3.org/1999/xlink" x="0px" y="0px"
	 viewBox="0 0 565.5 172.2" style="enable-background:new 0 0 565.5 172.2;" xml:space="preserve">
<style type="text/css">
	.st0{fill:#204684;}
	.st1{fill:#FFFFFF;}
</style>
<g>
	<path class="st0" d="M2.7,163.9c21-1,22-6.5,22-25.2v-108c0-18.5-3.5-21-22-22.5V3.5H72v4.7c-19,1.5-22,4.7-22,22.5v48.4h75.6V30.7
		c0-18.5-3.5-21-22-22.5V3.5h69.4v4.7c-19,1.5-22,4.7-22,22.5v110.8c0,16.5,2.5,21.2,22,22.5v4.7h-69.4v-4.7c21-1,22-6.5,22-25.2
		V90.1H50.1v51.4c0,16.5,2.5,21.2,22,22.5v4.7H2.7V163.9z"/>
</g>
<g>
	<path class="st0" d="M223.5,21.2c0-8.2,2.7-8.5,10.2-8.5c11,0,47.4,0.5,47.4,36.2c0,37.9-33.4,37.9-42.7,37.9
		c-5.2,0-10.2-0.3-15-0.7V21.2z M177.1,8.2c18.2,1.7,21,4.7,21,22.5v108c0,18,0,23.7-21,25.2v4.7h69.9v-4.7
		c-19.2-0.5-23.5-4.2-23.5-22.5V96.1c6,0.5,10.7,0.7,16.7,0.7c26.2,0,42.2-4.5,52.9-14.7c4.2-4,15.2-14.2,15.2-33.7
		c0-31.7-30.9-44.9-65.4-44.9h-65.9V8.2z"/>
</g>
<g>
	<path class="st0" d="M455.8,56.1C449.5,29.9,431.6,10,400.9,10c-12.5,0-26.9,5-37.4,15.2c-9.7,9.5-20.7,25.5-20.7,61.4
		c0,52.9,29.7,74.6,61.1,74.6c30.7,0,48.7-17.7,56.4-25.2l4.5,4.5c-0.2,0.5-21.7,31.7-67.6,31.7c-40.2,0-83.3-24-83.3-86.1
		c0-55.9,41.9-86.1,84.8-86.1c22.2,0,38.4,8.2,43.9,8.2c1.2,0,9.5,0,11.5-8.2h5.2l2.2,56.1H455.8z"/>
</g>
<g>
	<rect x="494.5" y="2.3" class="st0" width="67.8" height="166.2"/>
</g>
<path class="st1" d="M519.2,98.4h1.2c0.6,1.7,1.3,2,4.3,3.2l27.2,10.9c3.1,1.3,3.9,1.6,3.9,2.2c0,0.6-0.5,0.8-3.4,1.9l-18.6,7.2
	l18.9,8.8c2.2,1.1,3.1,1.5,3.1,2c0,0.6-0.8,0.9-3.5,2l-26.9,10.6c-3.8,1.6-4.8,2.2-5,4.2h-1.2v-14.2h1.2c0.2,1.8,0.5,3.6,2.7,3.6
	c2.8,0,12.8-4.6,22.8-8.3l-15.7-7.2c-8.9,2.9-9.4,3.8-9.8,7h-1.2v-16h1.2c0.4,2.6,0.6,4.6,2.9,4.6c1.4,0,2.3-0.5,5.4-1.7l16.8-6.3
	l-17.5-7.1c-2-0.9-4.1-1.3-5-1.3c-1.9,0-2.2,1.6-2.6,3.5h-1.2V98.4z"/>
<path class="st1" d="M553.5,96.5c-0.2-4.9-0.7-6.2-6.8-6.2h-18.3c-4.6,0-4.7,1.5-4.7,2.8c0,1.1,0.2,2.1,0.3,3.1h-1.2
	c-1.3-4.1-2.8-8.1-4.3-12.2l0.2-0.3h27.9c5.2,0,6.5-0.4,6.8-5.8h1.2v18.7H553.5z M500.9,87.7c0-2.4,1.8-4.1,4-4.1c2.3,0,4,1.7,4,4.1
	c0,2.8-2.5,3.9-4,3.9C503.4,91.6,500.9,90.4,500.9,87.7z"/>
<path class="st1" d="M528.3,71.4c-4.6,0-4.7,1.5-4.7,2.8c0,1.1,0.2,2,0.3,2.7h-1.3c-1.3-3.9-2.7-7.8-4.3-11.7l0.2-0.4h7v-0.2
	c-5.6-3.7-7.2-6.4-7.2-9.4c0-2.7,1.7-4.3,4.3-4.3c2,0,3.5,1.1,3.5,3c0,2.8-2.8,3.5-2.8,5.4c0,1.9,3.9,5.4,6.5,5.4h17.7
	c5.4,0,5.8-2.7,5.9-6.7h1.2V77h-1.2c-0.8-4.3-1-5.6-5.4-5.6H528.3z"/>
<path class="st1" d="M530.3,45.2c-6.9-1.3-9.1-4.3-9.1-8.7c0-6.2,5.3-7,9.1-7.6V45.2z M541.7,20.7c2.9,1.8,8.3,5.2,8.3,12.2
	c0,5.2-3.2,11.6-17.2,12.5V20.9c-10.3,0.9-14.4,6.5-14.4,13.9c0,6.3,4.8,16.1,19.4,16.1c11.2,0,17.6-6,17.6-14.7
	c0-11.3-10.7-15.9-13.1-16.7L541.7,20.7z"/>
</svg>
